<svg width="20" height="21" viewBox="0 0 20 21" fill="none" xmlns="http://www.w3.org/2000/svg">
<path d="M19 10.6845C19 4.49269 14.74 0.285889 10 0.285889C5.31 0.285889 1 4.40247 1 10.7521C0.4 11.1356 0 11.8574 0 12.692V14.9477C0 16.1883 0.9 17.2033 2 17.2033H3V10.3236C3 5.95887 6.13 2.42876 10 2.42876C13.87 2.42876 17 5.95887 17 10.3236V18.3312H9V20.5868H17C18.1 20.5868 19 19.5718 19 18.3312V16.9552C19.59 16.6056 20 15.9176 20 15.1056V12.5116C20 11.7221 19.59 11.0341 19 10.6845Z" fill="white"/>
<path d="M7 12.6921C7.55228 12.6921 8 12.1871 8 11.5642C8 10.9413 7.55228 10.4364 7 10.4364C6.44772 10.4364 6 10.9413 6 11.5642C6 12.1871 6.44772 12.6921 7 12.6921Z" fill="white"/>
<path d="M13 12.6921C13.5523 12.6921 14 12.1871 14 11.5642C14 10.9413 13.5523 10.4364 13 10.4364C12.4477 10.4364 12 10.9413 12 11.5642C12 12.1871 12.4477 12.6921 13 12.6921Z" fill="white"/>
<path d="M16 9.34241C15.52 6.1281 13.04 3.66943 10.05 3.66943C7.01997 3.66943 3.75997 6.50028 4.01997 10.9439C6.48997 9.80482 8.34997 7.3236 8.87997 4.30102C10.19 7.26721 12.88 9.30858 16 9.34241Z" fill="white"/>
</svg>
