<svg width="50" height="50" viewBox="0 0 50 50" fill="none" xmlns="http://www.w3.org/2000/svg">
<path d="M24.9962 0C11.1923 0 0 11.4817 0 25.6422C0 36.9699 7.16154 46.5788 17.0962 49.9728C18.3462 50.2059 19.2308 48.8941 19.2308 47.9064C19.2308 47.2979 19.2423 46.5867 19.2308 44.4492C12.2769 45.998 10.0962 40.992 10.0962 40.992C8.95769 38.0288 7.57308 37.1872 7.57308 37.1872C5.30385 35.5949 7.74231 35.6305 7.74231 35.6305C10.2538 35.8122 11.5385 38.0288 11.5385 38.0288C13.4615 41.4859 17.8077 41.154 19.2308 40.4982C19.2308 38.9296 19.4 37.7798 19.8231 37.0489C11.9654 35.6384 7.68077 30.9762 7.69231 24.5281C7.7 20.7193 8.98077 17.752 11.0615 15.5631C10.15 14.3857 9.53461 10.3715 11.3885 7.90208C16.0269 7.90208 18.8 11.3513 18.8 11.3513C18.8 11.3513 20.9731 10.3715 24.9923 10.3715C29.0115 10.3715 31.1769 11.296 31.1769 11.296C31.1769 11.296 33.9577 7.90208 38.5962 7.90208C40.45 10.3715 39.8346 14.3857 39.1038 15.4802C41.0923 17.6256 42.3077 20.5849 42.3077 24.5281C42.3077 30.9722 38.0385 35.6305 30.2 37.045C30.7 37.8194 30.7692 38.8861 30.7692 40.4982C30.7692 43.9237 30.7692 47.0648 30.7692 47.9064C30.7692 48.8941 31.6462 50.2177 32.9154 49.9688C42.8423 46.5709 50 36.9659 50 25.6422C50 11.4817 38.8077 0 24.9962 0Z" fill="white"/>
</svg>
