<svg width="228" height="196" viewBox="0 0 228 196" fill="none" xmlns="http://www.w3.org/2000/svg">
<g clip-path="url(#clip0)">
<path d="M23.2914 72.2199L14.6277 81.6106C21.8251 84.5626 29.1108 80.4644 32.0973 78.4098C41.7408 83.5337 53.041 84.9125 63.6986 82.2659C74.3563 79.6192 83.5707 73.1458 89.4672 64.1628C95.3636 55.1798 97.499 44.3621 95.439 33.9107C93.3789 23.4593 87.2781 14.1594 78.3779 7.90315C69.4777 1.64694 58.4467 -1.09555 47.5293 0.23368C36.612 1.56291 26.6285 6.86399 19.6101 15.0584C12.5918 23.2527 9.06584 33.7247 9.74973 44.3437C10.4336 54.9627 15.2759 64.9308 23.2914 72.2199V72.2199Z" fill="#E6E6E6"/>
<path d="M29.5899 34.8844C38.5278 34.7944 47.4647 34.6399 56.4022 34.5225C59.3818 34.4833 62.3615 34.449 65.3412 34.4195C67.9086 34.3937 67.9151 30.5334 65.3412 30.5593C56.4032 30.6493 47.4664 30.8038 38.5288 30.9212C35.5492 30.9604 32.5696 30.9947 29.5899 31.0242C27.0225 31.05 27.0159 34.9103 29.5899 34.8844Z" fill="white"/>
<path d="M29.5899 43.8915L65.7135 43.5296L75.9872 43.4267C78.5546 43.401 78.5612 39.5407 75.9872 39.5665L39.8636 39.9284L29.5899 40.0313C27.0225 40.057 27.0159 43.9173 29.5899 43.8915Z" fill="white"/>
<path d="M29.5899 52.8986L65.7135 52.5367L75.9872 52.4338C78.5546 52.4081 78.5612 48.5478 75.9872 48.5736L39.8636 48.9355L29.5899 49.0384C27.0225 49.0642 27.0159 52.9244 29.5899 52.8986Z" fill="white"/>
<path d="M3.14735 89.7331C4.88558 89.7331 6.2947 88.3706 6.2947 86.6899C6.2947 85.0092 4.88558 83.6467 3.14735 83.6467C1.40912 83.6467 0 85.0092 0 86.6899C0 88.3706 1.40912 89.7331 3.14735 89.7331Z" fill="#E6E6E6"/>
<path d="M159.567 105.05L157.807 115.668C157.697 116.334 157.437 116.968 157.046 117.525C156.655 118.083 156.142 118.55 155.543 118.895C154.944 119.24 154.275 119.454 153.582 119.521C152.888 119.589 152.188 119.508 151.53 119.285C150.876 119.063 150.28 118.706 149.783 118.239C149.287 117.771 148.902 117.204 148.655 116.578C148.409 115.952 148.306 115.281 148.356 114.612C148.405 113.944 148.605 113.294 148.941 112.707L154.666 102.724L176.796 59.9846C177.667 58.5633 179 57.4608 180.587 56.8489C182.174 56.237 183.926 56.1502 185.569 56.602L187.914 57.2466L184.427 67.1333L159.567 105.05Z" fill="#A0616A"/>
<path d="M220.638 179.698L225.818 179.435L220.092 160.981L211.913 162.563L220.638 179.698Z" fill="#A0616A"/>
<path d="M168.835 183.126H174.56L177.56 165.199H168.835V183.126Z" fill="#A0616A"/>
<path d="M177.911 31.6936C177.911 35.6286 179.516 39.4049 182.378 42.2022C185.241 44.9995 189.129 46.5919 193.198 46.6337C197.268 46.6754 201.19 45.1631 204.113 42.4251C207.036 39.6872 208.724 35.9447 208.81 32.0105C208.815 31.9063 208.815 31.7977 208.815 31.6936C208.816 29.7309 208.417 27.7872 207.641 25.9737C206.865 24.1602 205.727 22.5122 204.292 21.1241C202.857 19.736 201.153 18.6348 199.278 17.8835C197.403 17.1322 195.393 16.7455 193.363 16.7455C191.333 16.7455 189.323 17.1322 187.448 17.8835C185.573 18.6348 183.869 19.736 182.434 21.1241C180.999 22.5122 179.861 24.1602 179.085 25.9737C178.309 27.7872 177.91 29.7309 177.911 31.6936Z" fill="#2F2E41"/>
<path d="M199.918 23.544C204.315 23.544 207.878 20.098 207.878 15.8471C207.878 11.5962 204.315 8.15024 199.918 8.15024C195.522 8.15024 191.958 11.5962 191.958 15.8471C191.958 20.098 195.522 23.544 199.918 23.544Z" fill="#2F2E41"/>
<path d="M199.088 21.7306C200.624 22.2734 202.296 22.3454 203.876 21.9367C205.456 21.5279 206.868 20.6584 207.919 19.4463C208.97 18.2343 209.609 16.7386 209.749 15.1629C209.889 13.5871 209.524 12.0079 208.703 10.64C209.455 11.4383 210.024 12.3807 210.374 13.4057C210.725 14.4308 210.848 15.5157 210.736 16.5898C210.624 17.664 210.28 18.7034 209.726 19.6405C209.171 20.5776 208.419 21.3914 207.518 22.0291C206.617 22.6667 205.588 23.1139 204.496 23.3416C203.405 23.5693 202.276 23.5724 201.184 23.3507C200.091 23.1289 199.059 22.6873 198.154 22.0546C197.249 21.4219 196.492 20.6122 195.933 19.6781C196.796 20.5999 197.879 21.3044 199.088 21.7306Z" fill="#2F2E41"/>
<path d="M192.144 48.0945C197.075 48.0945 201.072 44.2296 201.072 39.4619C201.072 34.6942 197.075 30.8293 192.144 30.8293C187.213 30.8293 183.216 34.6942 183.216 39.4619C183.216 44.2296 187.213 48.0945 192.144 48.0945Z" fill="#A0616A"/>
<path d="M198.553 42.6119C198.553 42.6119 199.371 52.6298 204.551 54.7388L184.376 72.6655L177.832 69.7656L182.467 57.1115C182.467 57.1115 193.1 55.0024 188.738 45.7755L198.553 42.6119Z" fill="#A0616A"/>
<path d="M164.2 166.781L178.923 167.571L185.739 118.009L203.461 167.308L221.183 161.772L203.734 105.355C199.241 89.7493 203.021 72.5986 209.186 55.0024L202.37 53.157L186.829 55.2661C185.223 55.2684 183.646 55.6855 182.261 56.4743C180.877 57.263 179.735 58.3948 178.955 59.7527C175.126 66.3802 172.358 72.8101 174.615 78.3029C165.567 101.2 163.616 132.491 164.2 166.781Z" fill="#2F2E41"/>
<path d="M207.823 109.573L204.037 119.685C203.8 120.318 203.709 120.994 203.772 121.665C203.834 122.337 204.049 122.986 204.399 123.568C204.75 124.151 205.228 124.652 205.801 125.036C206.373 125.42 207.026 125.677 207.713 125.791C208.396 125.904 209.097 125.871 209.766 125.695C210.434 125.519 211.055 125.203 211.585 124.771C212.115 124.339 212.541 123.8 212.833 123.192C213.125 122.585 213.276 121.922 213.276 121.252V109.837L215.356 62.0826C215.307 60.4312 214.694 58.8419 213.613 57.5627C212.532 56.2835 211.043 55.3862 209.379 55.0108L207.005 54.4752L205.097 64.7567L207.823 109.573Z" fill="#A0616A"/>
<path d="M222.491 194.351C223.589 194.383 224.664 194.05 225.539 193.409C226.414 192.768 227.036 191.858 227.303 190.828L227.484 190.127C228.351 186.772 228.121 183.24 226.825 180.018L225 175.48L219.547 177.853L217.869 189.03C217.772 189.68 217.817 190.342 218.003 190.973C218.189 191.604 218.51 192.19 218.947 192.693C219.383 193.195 219.925 193.603 220.536 193.888C221.146 194.174 221.813 194.332 222.491 194.351Z" fill="#2F2E41"/>
<path d="M160.067 195.422C160.664 195.773 161.343 195.971 162.041 195.997C162.74 196.023 163.433 195.876 164.056 195.57L174.439 189.916C175.112 189.549 175.651 188.99 175.981 188.314C176.311 187.639 176.417 186.881 176.282 186.145L175.106 179.698H168.562L159.211 189.318C158.793 189.748 158.479 190.263 158.293 190.825C158.107 191.387 158.053 191.982 158.135 192.567C158.217 193.152 158.433 193.712 158.767 194.205C159.101 194.699 159.545 195.115 160.067 195.422Z" fill="#2F2E41"/>
<path d="M178.051 29.6788C180.472 35.3518 186.728 39.3904 194.065 39.3904C200.349 39.3904 205.842 36.4294 208.81 32.0105C208.815 31.9064 208.815 31.7977 208.815 31.6936C208.815 27.9057 207.327 24.2593 204.652 21.4919C201.977 18.7245 198.315 17.0427 194.407 16.7868C190.498 16.5308 186.635 17.7197 183.599 20.1131C180.562 22.5065 178.579 25.9256 178.051 29.6788V29.6788Z" fill="#2F2E41"/>
<path d="M150.841 73.8059C150.837 64.6539 147.724 55.7565 141.98 48.4822C136.237 41.2079 128.181 35.9595 119.051 33.5443C109.921 31.1291 100.224 31.6807 91.4504 35.1144C82.6768 38.5481 75.3127 44.6737 70.4909 52.5491C65.669 60.4244 63.6564 69.6133 64.7626 78.7026C65.8687 87.7919 70.0325 96.278 76.6133 102.856C83.1942 109.434 91.8277 113.739 101.186 115.11C110.544 116.48 120.109 114.84 128.41 110.442C131.396 112.496 138.682 116.595 145.879 113.643L137.215 104.252C141.522 100.35 144.954 95.6343 147.298 90.397C149.642 85.1596 150.848 79.5125 150.841 73.8059Z" fill="#764E7E"/>
<path d="M85.5508 66.9154C94.4888 66.8254 103.426 66.6709 112.363 66.5535C115.343 66.5143 118.322 66.48 121.302 66.4505C123.869 66.4247 123.876 62.5644 121.302 62.5903C112.364 62.6803 103.427 62.8348 94.4897 62.9522C91.5102 62.9914 88.5305 63.0257 85.5508 63.0552C82.9834 63.081 82.9768 66.9413 85.5508 66.9154Z" fill="white"/>
<path d="M85.5508 75.9225L121.674 75.5606L131.948 75.4577C134.516 75.432 134.522 71.5717 131.948 71.5975L95.8245 71.9594L85.5508 72.0623C82.9834 72.0881 82.9769 75.9483 85.5508 75.9226V75.9225Z" fill="white"/>
<path d="M85.5508 84.9297L121.674 84.5678L131.948 84.4648C134.516 84.4391 134.522 80.5788 131.948 80.6046L95.8245 80.9665L85.5508 81.0694C82.9834 81.0952 82.9769 84.9554 85.5508 84.9297Z" fill="white"/>
</g>
<defs>
<clipPath id="clip0">
<rect width="228" height="196" fill="white"/>
</clipPath>
</defs>
</svg>
