<svg width="544" height="399" viewBox="0 0 544 399" fill="none" xmlns="http://www.w3.org/2000/svg">
<g clip-path="url(#clip0)">
<path d="M527.916 116.923H230.233C226.042 116.927 222.025 118.634 219.062 121.67C216.099 124.705 214.433 128.821 214.429 133.113V182.535C214.433 186.828 216.099 190.944 219.062 193.979C222.025 197.014 226.042 198.721 230.233 198.725H527.916C532.107 198.721 536.124 197.014 539.087 193.979C542.05 190.944 543.716 186.828 543.72 182.535V133.113C543.716 128.821 542.05 124.705 539.087 121.67C536.124 118.634 532.107 116.927 527.916 116.923Z" fill="#FAFAFA"/>
<path d="M119.379 399H0.947453C0.696173 399 0.455169 398.898 0.277487 398.716C0.0998055 398.534 0 398.287 0 398.029C0 397.772 0.0998055 397.525 0.277487 397.343C0.455169 397.161 0.696173 397.059 0.947453 397.059H119.379C119.63 397.059 119.871 397.161 120.049 397.343C120.227 397.525 120.327 397.772 120.327 398.029C120.327 398.287 120.227 398.534 120.049 398.716C119.871 398.898 119.63 399 119.379 399Z" fill="#3F3D56"/>
<path d="M101.99 95.0982C100.892 95.8084 99.9588 96.7567 99.257 97.8762C98.5551 98.9957 98.1014 100.259 97.9277 101.578C97.7541 102.897 97.8648 104.238 98.2521 105.508C98.6393 106.778 99.2937 107.946 100.169 108.929L91.5591 127.764L101.456 135.916L113.25 109.142C114.765 107.526 115.648 105.397 115.732 103.158C115.817 100.92 115.097 98.7274 113.709 96.9963C112.321 95.2653 110.362 94.1159 108.202 93.766C106.042 93.4162 103.832 93.8902 101.99 95.0982V95.0982Z" fill="#FFB8B8"/>
<path d="M52.5124 102.742C55.2372 101.065 58.4875 100.527 61.5892 101.239C64.6909 101.951 67.406 103.859 69.1714 106.567L86.789 133.591L92.9053 119.778C93.2872 118.916 93.9637 118.226 94.8075 117.839C95.6513 117.451 96.6041 117.394 97.4866 117.676L106.718 120.63C107.2 120.784 107.648 121.036 108.034 121.37C108.42 121.704 108.736 122.114 108.966 122.575C109.195 123.036 109.332 123.54 109.368 124.056C109.404 124.573 109.34 125.091 109.178 125.581L102.858 144.697C102.059 147.115 100.723 149.31 98.9566 151.11C97.1897 152.911 95.0395 154.267 92.6748 155.073C90.3101 155.878 87.7954 156.112 85.3279 155.754C82.8604 155.397 80.5073 154.458 78.4535 153.012C77.4937 152.337 76.6082 151.557 75.8125 150.686L49.8499 122.267C48.5892 120.887 47.6457 119.235 47.0885 117.434C46.5314 115.632 46.3747 113.725 46.63 111.853C46.8852 109.981 47.5459 108.191 48.5638 106.615C49.5816 105.038 50.9307 103.715 52.5124 102.742Z" fill="#F78A50"/>
<path d="M109.505 74.8191C109.978 74.8311 110.426 75.0351 110.753 75.3862C111.079 75.7372 111.255 76.2066 111.243 76.691L111.091 82.9637L111.398 82.9923L111.288 87.2527L110.988 87.2144L110.443 109.686C110.425 110.455 110.134 111.191 109.624 111.757C109.115 112.322 108.422 112.678 107.675 112.759L93.727 114.263C93.3874 114.3 93.0441 114.26 92.7211 114.146C92.3982 114.032 92.1034 113.848 91.8575 113.605C91.6116 113.362 91.4205 113.067 91.2975 112.741C91.1746 112.415 91.1229 112.065 91.146 111.716L93.2615 79.7174C93.3059 79.0453 93.5722 78.4087 94.0166 77.9122C94.461 77.4158 95.0571 77.089 95.7069 76.9856L109.172 74.8426C109.282 74.8241 109.393 74.8163 109.505 74.8191Z" fill="#3F3D56"/>
<path d="M98.7098 78.1495L105.788 77.0229C105.916 77.0026 106.033 76.9399 106.122 76.8444C106.211 76.7489 106.267 76.626 106.281 76.4947C106.297 76.3459 106.36 76.2067 106.461 76.0986C106.562 75.9904 106.695 75.9193 106.839 75.8964L108.331 75.659C108.534 75.6267 108.742 75.6404 108.94 75.6994C109.137 75.7583 109.32 75.861 109.475 76.0001C109.63 76.1392 109.753 76.3115 109.835 76.5047C109.918 76.6978 109.958 76.9073 109.953 77.1181L109.187 109.698C109.177 110.103 109.023 110.489 108.753 110.784C108.483 111.079 108.116 111.262 107.723 111.298L93.7851 112.568C93.6073 112.584 93.4282 112.56 93.26 112.499C93.0918 112.438 92.9385 112.34 92.8105 112.213C92.6825 112.085 92.5829 111.931 92.5185 111.761C92.454 111.59 92.4263 111.407 92.4371 111.225L94.3177 79.5222C94.3454 79.055 94.5283 78.6117 94.8358 78.2657C95.1434 77.9197 95.5572 77.6919 96.0086 77.62L97.5805 77.3699C97.6382 77.6217 97.7866 77.8418 97.996 77.9864C98.2054 78.1309 98.4603 78.1892 98.7098 78.1495Z" fill="#FAFAFA"/>
<path d="M65.8688 387.218L76.7001 387.217L81.8514 344.418L65.865 344.42L65.8688 387.218Z" fill="#FFB8B8"/>
<path d="M97.5903 397.519L63.5486 397.522L63.5474 384.049L84.4367 384.047C86.1639 384.046 87.8742 384.395 89.47 385.072C91.0658 385.749 92.5158 386.741 93.7372 387.992C94.9586 389.243 95.9276 390.728 96.5887 392.363C97.2498 393.998 97.5902 395.75 97.5903 397.519L97.5903 397.519Z" fill="#2F2E41"/>
<path d="M32.5792 387.218L43.4105 387.217L48.5618 344.418L32.5754 344.42L32.5792 387.218Z" fill="#FFB8B8"/>
<path d="M64.3008 397.519L30.259 397.522L30.2578 384.049L51.1471 384.047C54.6354 384.046 57.9809 385.466 60.4477 387.992C62.9145 390.519 64.3005 393.946 64.3008 397.519L64.3008 397.519Z" fill="#2F2E41"/>
<path d="M64.3007 88.1956C77.1526 88.1956 87.5711 77.5225 87.5711 64.3566C87.5711 51.1907 77.1526 40.5176 64.3007 40.5176C51.4488 40.5176 41.0303 51.1907 41.0303 64.3566C41.0303 77.5225 51.4488 88.1956 64.3007 88.1956Z" fill="#FFB8B8"/>
<path d="M76.277 128.137C76.0869 122.008 74.4026 116.026 71.3776 110.734C68.3526 105.443 64.083 101.011 58.958 97.8427C52.9461 94.2135 46.3656 92.7982 41.1302 98.1614C37.9866 101.463 35.4691 105.333 33.706 109.577C28.8632 121.14 28.5463 134.169 32.8211 145.965L45.2815 181.231L74.1213 184.432C74.663 184.492 75.211 184.431 75.7279 184.255C76.2448 184.078 76.7185 183.79 77.1166 183.409C77.5148 183.028 77.8281 182.563 78.0351 182.047C78.2421 181.53 78.338 180.974 78.3162 180.417L76.277 128.137Z" fill="#2F2E41"/>
<path d="M47.1102 176.888C47.1102 176.888 25.5638 185.128 31.1971 220.02C36.252 251.33 32.2349 355.254 31.3569 376.262C31.3151 377.263 31.6532 378.242 32.3004 378.993C32.9476 379.745 33.8537 380.211 34.8286 380.293L47.4061 381.367C48.3912 381.451 49.3694 381.137 50.132 380.493C50.8947 379.849 51.3814 378.925 51.4883 377.918L57.984 316.796C58.0095 316.556 58.1213 316.334 58.2976 316.174C58.4739 316.014 58.702 315.927 58.9375 315.93C59.173 315.933 59.399 316.026 59.5714 316.19C59.7438 316.354 59.8503 316.579 59.8701 316.819L64.7103 375.633C64.7918 376.624 65.2414 377.545 65.9664 378.206C66.6913 378.868 67.6364 379.219 68.6066 379.187L79.1709 378.845C79.6687 378.829 80.1585 378.712 80.6124 378.502C81.0662 378.292 81.4752 377.992 81.8158 377.62C82.1565 377.248 82.4222 376.81 82.5977 376.333C82.7732 375.855 82.8551 375.347 82.8388 374.837L76.6157 180.964L47.1102 176.888Z" fill="#2F2E41"/>
<path d="M68.9709 62.786C76.7536 66.0559 86.6925 62.2361 90.4553 54.529C94.2181 46.822 91.2402 36.384 84.0181 31.9658C76.796 27.5476 66.4135 29.8123 61.5747 36.8611C57.6386 29.5965 47.327 27.7445 40.2472 31.798C33.1675 35.8515 29.3111 44.342 28.8538 52.6375C28.3964 60.9329 30.8582 69.105 33.8614 76.8231C38.7191 89.3075 54.3577 96.0296 66.4568 90.8341C60.9178 82.3827 62.0113 70.0151 68.9709 62.786Z" fill="#2F2E41"/>
<path d="M100.333 97.9885C100.126 97.9889 99.9241 97.9202 99.7584 97.7929L99.7481 97.785L97.5845 96.0895C97.4843 96.0108 97.4002 95.9127 97.337 95.8007C97.2739 95.6887 97.2328 95.5651 97.2163 95.4368C97.1998 95.3086 97.208 95.1782 97.2407 95.0533C97.2733 94.9283 97.3296 94.8112 97.4065 94.7085C97.4833 94.6059 97.5791 94.5197 97.6884 94.455C97.7977 94.3903 97.9184 94.3483 98.0436 94.3313C98.1688 94.3144 98.296 94.3229 98.418 94.3563C98.5399 94.3897 98.6543 94.4474 98.7545 94.5261L100.156 95.627L103.467 91.2011C103.544 91.0985 103.64 91.0124 103.749 90.9477C103.859 90.883 103.979 90.841 104.104 90.824C104.23 90.8071 104.357 90.8156 104.479 90.849C104.601 90.8824 104.715 90.9401 104.815 91.0188L104.815 91.019L104.795 91.0482L104.816 91.019C105.018 91.1781 105.15 91.4128 105.183 91.6716C105.217 91.9305 105.148 92.1923 104.994 92.3997L101.098 97.6032C101.008 97.7231 100.892 97.8201 100.76 97.8867C100.627 97.9533 100.481 97.9877 100.334 97.9873L100.333 97.9885Z" fill="#764E7E"/>
<path d="M528.196 0H230.513C226.322 0.00388839 222.305 1.71087 219.342 4.74623C216.379 7.7816 214.713 11.8973 214.709 16.1899V65.6119C214.713 69.9045 216.379 74.0203 219.342 77.0556C222.305 80.091 226.322 81.798 230.513 81.8018H528.196C532.387 81.798 536.404 80.091 539.367 77.0556C542.33 74.0203 543.996 69.9045 544 65.6119V16.1899C543.996 11.8973 542.33 7.78158 539.367 4.74622C536.404 1.71086 532.387 0.00388839 528.196 0ZM542.337 65.6119C542.331 69.4521 540.84 73.1334 538.189 75.8489C535.538 78.5643 531.945 80.0922 528.196 80.0976H230.513C226.764 80.0922 223.17 78.5643 220.52 75.8489C217.869 73.1334 216.378 69.4521 216.372 65.6119V16.1899C216.378 12.3498 217.869 8.66841 220.52 5.95299C223.17 3.23756 226.764 1.70963 230.513 1.7042H528.196C531.945 1.70963 535.538 3.23756 538.189 5.95299C540.84 8.66841 542.331 12.3498 542.337 16.1899V65.6119Z" fill="#3F3D56"/>
<path d="M291.092 69.0797C285.651 69.0797 280.333 67.4271 275.81 64.3308C271.286 61.2345 267.761 56.8336 265.679 51.6846C263.597 46.5356 263.052 40.8698 264.113 35.4036C265.175 29.9375 267.794 24.9165 271.641 20.9756C275.488 17.0347 280.389 14.3509 285.725 13.2636C291.061 12.1763 296.591 12.7343 301.618 14.8671C306.644 16.9999 310.94 20.6116 313.962 25.2456C316.985 29.8796 318.598 35.3276 318.598 40.9009C318.59 48.3717 315.689 55.5342 310.532 60.8169C305.376 66.0996 298.384 69.0711 291.092 69.0797Z" fill="#764E7E"/>
<path d="M487.58 63.9077H344.607C342.842 63.9077 341.15 63.1895 339.902 61.9111C338.654 60.6327 337.953 58.8988 337.953 57.0909C337.953 55.2829 338.654 53.5491 339.902 52.2707C341.15 50.9923 342.842 50.274 344.607 50.274H487.58C489.345 50.274 491.037 50.9923 492.285 52.2707C493.533 53.5491 494.234 55.2829 494.234 57.0909C494.234 58.8988 493.533 60.6327 492.285 61.9111C491.037 63.1895 489.345 63.9077 487.58 63.9077Z" fill="#F78A50"/>
<path d="M391.925 34.9362H344.607C342.842 34.9362 341.15 34.218 339.902 32.9396C338.654 31.6612 337.953 29.9273 337.953 28.1194C337.953 26.3114 338.654 24.5776 339.902 23.2992C341.15 22.0208 342.842 21.3026 344.607 21.3026H391.925C393.69 21.3026 395.383 22.0208 396.631 23.2992C397.879 24.5776 398.58 26.3114 398.58 28.1194C398.58 29.9273 397.879 31.6612 396.631 32.9396C395.383 34.218 393.69 34.9362 391.925 34.9362Z" fill="#F78A50"/>
<path d="M289.687 50.8128C289.004 50.8139 288.34 50.5878 287.794 50.1683L287.76 50.1423L280.631 44.5553C280.3 44.2963 280.022 43.973 279.813 43.6038C279.604 43.2346 279.468 42.8269 279.414 42.404C279.359 41.9811 279.386 41.5512 279.493 41.139C279.601 40.7267 279.786 40.3403 280.04 40.0017C280.293 39.6631 280.609 39.379 280.97 39.1656C281.331 38.9523 281.729 38.8139 282.142 38.7583C282.555 38.7028 282.974 38.7312 283.377 38.842C283.779 38.9527 284.156 39.1436 284.486 39.4038L289.104 43.0314L300.016 28.4475C300.269 28.1094 300.584 27.8256 300.945 27.6124C301.305 27.3992 301.702 27.2608 302.114 27.205C302.527 27.1492 302.946 27.1772 303.348 27.2873C303.749 27.3974 304.126 27.5874 304.456 27.8467L304.457 27.8474L304.389 27.9437L304.459 27.8474C305.125 28.3716 305.56 29.1451 305.67 29.998C305.78 30.851 305.555 31.7137 305.045 32.3969L292.209 49.5432C291.913 49.9383 291.531 50.258 291.094 50.4775C290.657 50.697 290.176 50.8104 289.69 50.8089L289.687 50.8128Z" fill="#FAFAFA"/>
<path d="M400.29 132.973H102.606C98.416 132.977 94.3985 134.684 91.4355 137.719C88.4725 140.754 86.8063 144.87 86.8025 149.163V198.585C86.8063 202.877 88.4725 206.993 91.4355 210.028C94.3985 213.064 98.416 214.771 102.606 214.775H400.29C404.48 214.771 408.498 213.064 411.461 210.028C414.424 206.993 416.09 202.877 416.094 198.585V149.163C416.09 144.87 414.424 140.754 411.461 137.719C408.498 134.684 404.48 132.977 400.29 132.973Z" fill="#FAFAFA"/>
<path d="M400.29 132.973H102.606C98.416 132.977 94.3985 134.684 91.4355 137.719C88.4725 140.754 86.8063 144.87 86.8025 149.163V198.585C86.8063 202.877 88.4725 206.993 91.4355 210.028C94.3985 213.064 98.416 214.771 102.606 214.775H400.29C404.48 214.771 408.498 213.064 411.461 210.028C414.424 206.993 416.09 202.877 416.094 198.585V149.163C416.09 144.87 414.424 140.754 411.461 137.719C408.498 134.684 404.48 132.977 400.29 132.973ZM414.43 198.585C414.425 202.425 412.933 206.106 410.283 208.822C407.632 211.537 404.039 213.065 400.29 213.07H102.606C98.8577 213.065 95.2641 211.537 92.6135 208.822C89.9628 206.106 88.4713 202.425 88.466 198.585V149.163C88.4713 145.322 89.9628 141.641 92.6134 138.926C95.2641 136.21 98.8577 134.682 102.606 134.677H400.29C404.039 134.682 407.632 136.21 410.283 138.926C412.933 141.641 414.425 145.322 414.43 149.163V198.585Z" fill="#3F3D56"/>
<path d="M163.185 202.052C157.745 202.052 152.427 200.4 147.903 197.303C143.38 194.207 139.854 189.806 137.772 184.657C135.69 179.508 135.146 173.842 136.207 168.376C137.268 162.91 139.888 157.889 143.735 153.948C147.582 150.007 152.483 147.324 157.819 146.236C163.155 145.149 168.685 145.707 173.711 147.84C178.738 149.973 183.034 153.584 186.056 158.218C189.079 162.852 190.692 168.3 190.692 173.874C190.684 181.344 187.783 188.507 182.626 193.79C177.47 199.072 170.478 202.044 163.185 202.052Z" fill="#764E7E"/>
<path d="M359.674 196.88H216.701C214.936 196.88 213.244 196.162 211.996 194.884C210.748 193.605 210.047 191.871 210.047 190.064C210.047 188.256 210.748 186.522 211.996 185.243C213.244 183.965 214.936 183.247 216.701 183.247H359.674C361.439 183.247 363.131 183.965 364.379 185.243C365.627 186.522 366.328 188.256 366.328 190.064C366.328 191.871 365.627 193.605 364.379 194.884C363.131 196.162 361.439 196.88 359.674 196.88Z" fill="#F78A50"/>
<path d="M264.019 167.909H216.701C215.827 167.909 214.962 167.732 214.154 167.39C213.347 167.047 212.614 166.545 211.996 165.912C211.378 165.279 210.888 164.528 210.553 163.701C210.219 162.874 210.047 161.987 210.047 161.092C210.047 160.197 210.219 159.31 210.553 158.483C210.888 157.656 211.378 156.905 211.996 156.272C212.614 155.639 213.347 155.137 214.154 154.794C214.962 154.451 215.827 154.275 216.701 154.275H264.019C265.784 154.275 267.476 154.993 268.724 156.272C269.972 157.55 270.673 159.284 270.673 161.092C270.673 162.9 269.972 164.634 268.724 165.912C267.476 167.191 265.784 167.909 264.019 167.909Z" fill="#F78A50"/>
<path d="M161.78 183.785C161.098 183.787 160.434 183.56 159.888 183.141L159.854 183.115L152.724 177.528C152.393 177.269 152.116 176.946 151.907 176.576C151.698 176.207 151.562 175.8 151.507 175.377C151.452 174.954 151.48 174.524 151.587 174.112C151.694 173.699 151.88 173.313 152.134 172.974C152.387 172.636 152.703 172.352 153.064 172.138C153.424 171.925 153.823 171.787 154.236 171.731C154.649 171.675 155.068 171.704 155.47 171.815C155.873 171.925 156.249 172.116 156.58 172.376L161.197 176.004L172.11 161.42C172.363 161.082 172.678 160.798 173.038 160.585C173.398 160.372 173.796 160.233 174.208 160.178C174.621 160.122 175.04 160.15 175.441 160.26C175.843 160.37 176.22 160.56 176.55 160.819L176.551 160.82L176.483 160.916L176.553 160.82C177.218 161.344 177.654 162.118 177.764 162.971C177.874 163.824 177.649 164.686 177.138 165.37L164.303 182.516C164.006 182.911 163.624 183.231 163.187 183.45C162.75 183.67 162.27 183.783 161.783 183.782L161.78 183.785Z" fill="#FAFAFA"/>
<path d="M92.9531 144.121C91.7569 143.603 90.4643 143.36 89.1663 143.408C87.8684 143.457 86.5967 143.797 85.4408 144.404C84.2849 145.011 83.2729 145.87 82.4762 146.92C81.6794 147.971 81.1172 149.188 80.8293 150.486L60.8187 153.997L59.936 166.975L88.1268 161.609C90.2865 161.961 92.4968 161.488 94.3391 160.281C96.1814 159.074 97.5275 157.217 98.1224 155.061C98.7173 152.906 98.5197 150.601 97.5669 148.585C96.6142 146.569 94.9726 144.98 92.9531 144.121L92.9531 144.121Z" fill="#FFB8B8"/>
<path d="M58.5799 106.871C61.4794 108.205 63.7662 110.632 64.9662 113.647C66.1661 116.663 66.1871 120.036 65.0248 123.066L53.4254 153.312L67.9874 150.57C68.8967 150.399 69.8358 150.574 70.6278 151.063C71.4198 151.552 72.0101 152.32 72.2876 153.224L75.1905 162.674C75.3421 163.168 75.3959 163.688 75.3486 164.203C75.3012 164.719 75.1538 165.219 74.9149 165.675C74.6761 166.131 74.3506 166.534 73.9576 166.859C73.5646 167.184 73.1121 167.426 72.6267 167.57L53.6994 173.168C51.3052 173.876 48.7833 174.006 46.3318 173.548C43.8802 173.09 41.5657 172.056 39.5699 170.527C37.5742 168.998 35.9515 167.016 34.8292 164.737C33.7069 162.457 33.1157 159.942 33.1018 157.389C33.0953 156.197 33.215 155.006 33.4588 153.84L41.4117 115.779C41.7979 113.931 42.5827 112.194 43.7087 110.697C44.8347 109.2 46.2734 107.979 47.9194 107.125C49.5654 106.271 51.377 105.805 53.2215 105.761C55.0661 105.717 56.8969 106.096 58.5799 106.871Z" fill="#F78A50"/>
</g>
<defs>
<clipPath id="clip0">
<rect width="544" height="399" fill="white"/>
</clipPath>
</defs>
</svg>
